<svg width="43" height="32" viewBox="0 0 43 32" fill="none" xmlns="http://www.w3.org/2000/svg">
<g clip-path="url(#clip0_1492_4707)">
<path d="M35.7658 2.67995C32.9918 1.40994 30.0633 0.508951 27.0552 0C26.6435 0.735868 26.2711 1.49298 25.9394 2.26816C22.7351 1.78531 19.4766 1.78531 16.2723 2.26816C15.9404 1.49306 15.5679 0.735957 15.1565 0C12.1464 0.513249 9.21596 1.41638 6.43916 2.68659C0.926494 10.8427 -0.567902 18.7962 0.179296 26.6368C3.40765 29.022 7.0211 30.8361 10.8626 32C11.7276 30.8366 12.493 29.6024 13.1507 28.3105C11.9015 27.8439 10.6957 27.2683 9.5475 26.5903C9.8497 26.3711 10.1453 26.1453 10.4309 25.9261C13.772 27.4974 17.4187 28.312 21.1108 28.312C24.803 28.312 28.4496 27.4974 31.7908 25.9261C32.0797 26.1619 32.3752 26.3877 32.6741 26.5903C31.5236 27.2694 30.3157 27.8461 29.0643 28.3138C29.7212 29.6052 30.4867 30.8383 31.3524 32C35.1972 30.8407 38.8134 29.0276 42.0423 26.6401C42.919 17.5475 40.5446 9.66708 35.7658 2.67995ZM14.0971 21.8149C12.0149 21.8149 10.2947 19.9253 10.2947 17.6007C10.2947 15.276 11.9551 13.3699 14.0905 13.3699C16.2258 13.3699 17.9327 15.276 17.8962 17.6007C17.8597 19.9253 16.2191 21.8149 14.0971 21.8149ZM28.1245 21.8149C26.039 21.8149 24.3254 19.9253 24.3254 17.6007C24.3254 15.276 25.9859 13.3699 28.1245 13.3699C30.2631 13.3699 31.9568 15.276 31.9203 17.6007C31.8837 19.9253 30.2465 21.8149 28.1245 21.8149Z" fill="#5865F2"/>
</g>
<defs>
<clipPath id="clip0_1492_4707">
<rect width="42.2217" height="32" fill="white"/>
</clipPath>
</defs>
</svg>
