<svg width="32" height="32" viewBox="0 0 32 32" fill="none" xmlns="http://www.w3.org/2000/svg">
<path d="M32.0003 16C32.0003 7.16352 24.8709 0 16.0763 0C7.28184 0 0.152344 7.16352 0.152344 16C0.152344 23.5034 5.29389 29.7997 12.2297 31.529V20.8896H8.94621V16H12.2297V13.8931C12.2297 8.44736 14.6827 5.9232 20.0038 5.9232C21.0128 5.9232 22.7536 6.12224 23.4657 6.32064V10.7526C23.0899 10.713 22.437 10.6931 21.6262 10.6931C19.0153 10.6931 18.0063 11.687 18.0063 14.2707V16H23.2077L22.3141 20.8896H18.0063V31.8829C25.8913 30.9261 32.001 24.1805 32.001 16H32.0003Z" fill="#0866FF"/>
</svg>
