<svg width="33" height="32" viewBox="0 0 33 32" fill="none" xmlns="http://www.w3.org/2000/svg">
<circle cx="16.0762" cy="16" r="16" fill="url(#paint0_radial_1994_59)"/>
<circle cx="16.0762" cy="16" r="16" fill="black" fill-opacity="0.2"/>
<circle cx="16.0762" cy="16" r="16" fill="url(#paint1_radial_1994_59)"/>
<g clip-path="url(#clip0_1994_59)">
<g clip-path="url(#clip1_1994_59)">
<path d="M12.0768 16C12.0768 13.7909 13.8671 11.9997 16.0762 11.9997C18.2852 11.9997 20.0765 13.7909 20.0765 16C20.0765 18.2091 18.2852 20.0003 16.0762 20.0003C13.8671 20.0003 12.0768 18.2091 12.0768 16ZM9.91432 16C9.91432 19.4032 12.673 22.1619 16.0762 22.1619C19.4794 22.1619 22.238 19.4032 22.238 16C22.238 12.5968 19.4794 9.83814 16.0762 9.83814C12.673 9.83814 9.91432 12.5968 9.91432 16ZM21.042 9.59382C21.0418 9.87863 21.1262 10.1571 21.2843 10.3939C21.4425 10.6308 21.6673 10.8155 21.9304 10.9246C22.1934 11.0337 22.483 11.0623 22.7623 11.0068C23.0417 10.9514 23.2983 10.8143 23.4998 10.613C23.7013 10.4117 23.8385 10.1552 23.8942 9.8759C23.9499 9.59658 23.9215 9.30704 23.8126 9.04387C23.7037 8.7807 23.5192 8.55573 23.2825 8.3974C23.0457 8.23908 22.7673 8.15451 22.4825 8.1544H22.482C22.1002 8.15458 21.7341 8.30627 21.4641 8.57616C21.1941 8.84605 21.0423 9.21207 21.042 9.59382ZM11.2282 25.7677C10.0582 25.7144 9.42232 25.5196 8.99972 25.3549C8.43947 25.1368 8.03972 24.877 7.61944 24.4573C7.19915 24.0376 6.93899 23.6382 6.72184 23.078C6.5571 22.6556 6.36222 22.0195 6.30904 20.8495C6.25086 19.5846 6.23924 19.2047 6.23924 16.0001C6.23924 12.7955 6.25182 12.4166 6.30904 11.1507C6.36232 9.9807 6.55864 9.34586 6.72184 8.92221C6.93995 8.36195 7.19972 7.96221 7.61944 7.54192C8.03915 7.12163 8.43851 6.86147 8.99972 6.64432C9.42212 6.47958 10.0582 6.2847 11.2282 6.23152C12.4931 6.17334 12.873 6.16173 16.0762 6.16173C19.2793 6.16173 19.6597 6.1743 20.9256 6.23152C22.0956 6.2848 22.7304 6.48112 23.1541 6.64432C23.7143 6.86147 24.1141 7.12221 24.5343 7.54192C24.9546 7.96163 25.2138 8.36195 25.4319 8.92221C25.5967 9.34461 25.7916 9.9807 25.8447 11.1507C25.9029 12.4166 25.9145 12.7955 25.9145 16.0001C25.9145 19.2047 25.9029 19.5836 25.8447 20.8495C25.7915 22.0195 25.5956 22.6554 25.4319 23.078C25.2138 23.6382 24.9541 24.038 24.5343 24.4573C24.1146 24.8766 23.7143 25.1368 23.1541 25.3549C22.7317 25.5196 22.0956 25.7145 20.9256 25.7677C19.6607 25.8259 19.2807 25.8375 16.0762 25.8375C12.8716 25.8375 12.4927 25.8259 11.2282 25.7677ZM11.1288 4.07267C9.85134 4.13085 8.97841 4.33341 8.21608 4.63005C7.42657 4.93638 6.75822 5.34736 6.09035 6.01418C5.42248 6.68099 5.01256 7.3504 4.70622 8.1399C4.40958 8.90272 4.20702 9.77517 4.14884 11.0526C4.08971 12.3321 4.07617 12.7412 4.07617 16C4.07617 19.2588 4.08971 19.6679 4.14884 20.9474C4.20702 22.2249 4.40958 23.0973 4.70622 23.8601C5.01256 24.6491 5.42257 25.3193 6.09035 25.9858C6.75812 26.6524 7.42657 27.0628 8.21608 27.37C8.97985 27.6666 9.85134 27.8692 11.1288 27.9273C12.409 27.9855 12.8174 28 16.0762 28C19.335 28 19.744 27.9865 21.0235 27.9273C22.3011 27.8692 23.1735 27.6666 23.9363 27.37C24.7253 27.0628 25.3941 26.6526 26.062 25.9858C26.7299 25.319 27.1389 24.6491 27.4461 23.8601C27.7428 23.0973 27.9463 22.2248 28.0035 20.9474C28.0617 19.6669 28.0752 19.2588 28.0752 16C28.0752 12.7412 28.0617 12.3321 28.0035 11.0526C27.9453 9.77507 27.7428 8.90224 27.4461 8.1399C27.1389 7.35088 26.7288 6.68205 26.062 6.01418C25.3952 5.3463 24.7253 4.93638 23.9372 4.63005C23.1735 4.33341 22.301 4.12989 21.0245 4.07267C19.745 4.0145 19.3359 4 16.0771 4C12.8183 4 12.409 4.01354 11.1288 4.07267Z" fill="url(#paint2_radial_1994_59)"/>
<path d="M12.0768 16C12.0768 13.7909 13.8671 11.9997 16.0762 11.9997C18.2852 11.9997 20.0765 13.7909 20.0765 16C20.0765 18.2091 18.2852 20.0003 16.0762 20.0003C13.8671 20.0003 12.0768 18.2091 12.0768 16ZM9.91432 16C9.91432 19.4032 12.673 22.1619 16.0762 22.1619C19.4794 22.1619 22.238 19.4032 22.238 16C22.238 12.5968 19.4794 9.83814 16.0762 9.83814C12.673 9.83814 9.91432 12.5968 9.91432 16ZM21.042 9.59382C21.0418 9.87863 21.1262 10.1571 21.2843 10.3939C21.4425 10.6308 21.6673 10.8155 21.9304 10.9246C22.1934 11.0337 22.483 11.0623 22.7623 11.0068C23.0417 10.9514 23.2983 10.8143 23.4998 10.613C23.7013 10.4117 23.8385 10.1552 23.8942 9.8759C23.9499 9.59658 23.9215 9.30704 23.8126 9.04387C23.7037 8.7807 23.5192 8.55573 23.2825 8.3974C23.0457 8.23908 22.7673 8.15451 22.4825 8.1544H22.482C22.1002 8.15458 21.7341 8.30627 21.4641 8.57616C21.1941 8.84605 21.0423 9.21207 21.042 9.59382ZM11.2282 25.7677C10.0582 25.7144 9.42232 25.5196 8.99972 25.3549C8.43947 25.1368 8.03972 24.877 7.61944 24.4573C7.19915 24.0376 6.93899 23.6382 6.72184 23.078C6.5571 22.6556 6.36222 22.0195 6.30904 20.8495C6.25086 19.5846 6.23924 19.2047 6.23924 16.0001C6.23924 12.7955 6.25182 12.4166 6.30904 11.1507C6.36232 9.9807 6.55864 9.34586 6.72184 8.92221C6.93995 8.36195 7.19972 7.96221 7.61944 7.54192C8.03915 7.12163 8.43851 6.86147 8.99972 6.64432C9.42212 6.47958 10.0582 6.2847 11.2282 6.23152C12.4931 6.17334 12.873 6.16173 16.0762 6.16173C19.2793 6.16173 19.6597 6.1743 20.9256 6.23152C22.0956 6.2848 22.7304 6.48112 23.1541 6.64432C23.7143 6.86147 24.1141 7.12221 24.5343 7.54192C24.9546 7.96163 25.2138 8.36195 25.4319 8.92221C25.5967 9.34461 25.7916 9.9807 25.8447 11.1507C25.9029 12.4166 25.9145 12.7955 25.9145 16.0001C25.9145 19.2047 25.9029 19.5836 25.8447 20.8495C25.7915 22.0195 25.5956 22.6554 25.4319 23.078C25.2138 23.6382 24.9541 24.038 24.5343 24.4573C24.1146 24.8766 23.7143 25.1368 23.1541 25.3549C22.7317 25.5196 22.0956 25.7145 20.9256 25.7677C19.6607 25.8259 19.2807 25.8375 16.0762 25.8375C12.8716 25.8375 12.4927 25.8259 11.2282 25.7677ZM11.1288 4.07267C9.85134 4.13085 8.97841 4.33341 8.21608 4.63005C7.42657 4.93638 6.75822 5.34736 6.09035 6.01418C5.42248 6.68099 5.01256 7.3504 4.70622 8.1399C4.40958 8.90272 4.20702 9.77517 4.14884 11.0526C4.08971 12.3321 4.07617 12.7412 4.07617 16C4.07617 19.2588 4.08971 19.6679 4.14884 20.9474C4.20702 22.2249 4.40958 23.0973 4.70622 23.8601C5.01256 24.6491 5.42257 25.3193 6.09035 25.9858C6.75812 26.6524 7.42657 27.0628 8.21608 27.37C8.97985 27.6666 9.85134 27.8692 11.1288 27.9273C12.409 27.9855 12.8174 28 16.0762 28C19.335 28 19.744 27.9865 21.0235 27.9273C22.3011 27.8692 23.1735 27.6666 23.9363 27.37C24.7253 27.0628 25.3941 26.6526 26.062 25.9858C26.7299 25.319 27.1389 24.6491 27.4461 23.8601C27.7428 23.0973 27.9463 22.2248 28.0035 20.9474C28.0617 19.6669 28.0752 19.2588 28.0752 16C28.0752 12.7412 28.0617 12.3321 28.0035 11.0526C27.9453 9.77507 27.7428 8.90224 27.4461 8.1399C27.1389 7.35088 26.7288 6.68205 26.062 6.01418C25.3952 5.3463 24.7253 4.93638 23.9372 4.63005C23.1735 4.33341 22.301 4.12989 21.0245 4.07267C19.745 4.0145 19.3359 4 16.0771 4C12.8183 4 12.409 4.01354 11.1288 4.07267Z" fill="black" fill-opacity="0.2"/>
<path d="M12.0768 16C12.0768 13.7909 13.8671 11.9997 16.0762 11.9997C18.2852 11.9997 20.0765 13.7909 20.0765 16C20.0765 18.2091 18.2852 20.0003 16.0762 20.0003C13.8671 20.0003 12.0768 18.2091 12.0768 16ZM9.91432 16C9.91432 19.4032 12.673 22.1619 16.0762 22.1619C19.4794 22.1619 22.238 19.4032 22.238 16C22.238 12.5968 19.4794 9.83814 16.0762 9.83814C12.673 9.83814 9.91432 12.5968 9.91432 16ZM21.042 9.59382C21.0418 9.87863 21.1262 10.1571 21.2843 10.3939C21.4425 10.6308 21.6673 10.8155 21.9304 10.9246C22.1934 11.0337 22.483 11.0623 22.7623 11.0068C23.0417 10.9514 23.2983 10.8143 23.4998 10.613C23.7013 10.4117 23.8385 10.1552 23.8942 9.8759C23.9499 9.59658 23.9215 9.30704 23.8126 9.04387C23.7037 8.7807 23.5192 8.55573 23.2825 8.3974C23.0457 8.23908 22.7673 8.15451 22.4825 8.1544H22.482C22.1002 8.15458 21.7341 8.30627 21.4641 8.57616C21.1941 8.84605 21.0423 9.21207 21.042 9.59382ZM11.2282 25.7677C10.0582 25.7144 9.42232 25.5196 8.99972 25.3549C8.43947 25.1368 8.03972 24.877 7.61944 24.4573C7.19915 24.0376 6.93899 23.6382 6.72184 23.078C6.5571 22.6556 6.36222 22.0195 6.30904 20.8495C6.25086 19.5846 6.23924 19.2047 6.23924 16.0001C6.23924 12.7955 6.25182 12.4166 6.30904 11.1507C6.36232 9.9807 6.55864 9.34586 6.72184 8.92221C6.93995 8.36195 7.19972 7.96221 7.61944 7.54192C8.03915 7.12163 8.43851 6.86147 8.99972 6.64432C9.42212 6.47958 10.0582 6.2847 11.2282 6.23152C12.4931 6.17334 12.873 6.16173 16.0762 6.16173C19.2793 6.16173 19.6597 6.1743 20.9256 6.23152C22.0956 6.2848 22.7304 6.48112 23.1541 6.64432C23.7143 6.86147 24.1141 7.12221 24.5343 7.54192C24.9546 7.96163 25.2138 8.36195 25.4319 8.92221C25.5967 9.34461 25.7916 9.9807 25.8447 11.1507C25.9029 12.4166 25.9145 12.7955 25.9145 16.0001C25.9145 19.2047 25.9029 19.5836 25.8447 20.8495C25.7915 22.0195 25.5956 22.6554 25.4319 23.078C25.2138 23.6382 24.9541 24.038 24.5343 24.4573C24.1146 24.8766 23.7143 25.1368 23.1541 25.3549C22.7317 25.5196 22.0956 25.7145 20.9256 25.7677C19.6607 25.8259 19.2807 25.8375 16.0762 25.8375C12.8716 25.8375 12.4927 25.8259 11.2282 25.7677ZM11.1288 4.07267C9.85134 4.13085 8.97841 4.33341 8.21608 4.63005C7.42657 4.93638 6.75822 5.34736 6.09035 6.01418C5.42248 6.68099 5.01256 7.3504 4.70622 8.1399C4.40958 8.90272 4.20702 9.77517 4.14884 11.0526C4.08971 12.3321 4.07617 12.7412 4.07617 16C4.07617 19.2588 4.08971 19.6679 4.14884 20.9474C4.20702 22.2249 4.40958 23.0973 4.70622 23.8601C5.01256 24.6491 5.42257 25.3193 6.09035 25.9858C6.75812 26.6524 7.42657 27.0628 8.21608 27.37C8.97985 27.6666 9.85134 27.8692 11.1288 27.9273C12.409 27.9855 12.8174 28 16.0762 28C19.335 28 19.744 27.9865 21.0235 27.9273C22.3011 27.8692 23.1735 27.6666 23.9363 27.37C24.7253 27.0628 25.3941 26.6526 26.062 25.9858C26.7299 25.319 27.1389 24.6491 27.4461 23.8601C27.7428 23.0973 27.9463 22.2248 28.0035 20.9474C28.0617 19.6669 28.0752 19.2588 28.0752 16C28.0752 12.7412 28.0617 12.3321 28.0035 11.0526C27.9453 9.77507 27.7428 8.90224 27.4461 8.1399C27.1389 7.35088 26.7288 6.68205 26.062 6.01418C25.3952 5.3463 24.7253 4.93638 23.9372 4.63005C23.1735 4.33341 22.301 4.12989 21.0245 4.07267C19.745 4.0145 19.3359 4 16.0771 4C12.8183 4 12.409 4.01354 11.1288 4.07267Z" fill="white"/>
</g>
</g>
<defs>
<radialGradient id="paint0_radial_1994_59" cx="0" cy="0" r="1" gradientUnits="userSpaceOnUse" gradientTransform="translate(4.32773 32.1512) scale(41.775 41.7733)">
<stop offset="0.09" stop-color="#FA8F21"/>
<stop offset="0.78" stop-color="#D82D7E"/>
</radialGradient>
<radialGradient id="paint1_radial_1994_59" cx="0" cy="0" r="1" gradientUnits="userSpaceOnUse" gradientTransform="translate(19.4835 33.5848) scale(32.9245 32.9231)">
<stop offset="0.64" stop-color="#8C3AAA" stop-opacity="0"/>
<stop offset="1" stop-color="#8C3AAA"/>
</radialGradient>
<radialGradient id="paint2_radial_1994_59" cx="0" cy="0" r="1" gradientUnits="userSpaceOnUse" gradientTransform="translate(7.26472 28.1134) scale(31.33 31.33)">
<stop offset="0.09" stop-color="#FA8F21"/>
<stop offset="0.78" stop-color="#D82D7E"/>
</radialGradient>
<clipPath id="clip0_1994_59">
<rect width="24" height="24" fill="white" transform="translate(4.07617 4)"/>
</clipPath>
<clipPath id="clip1_1994_59">
<rect width="24" height="24" fill="white" transform="translate(4.07617 4)"/>
</clipPath>
</defs>
</svg>
