<svg width="42" height="32" viewBox="0 0 42 32" fill="none" xmlns="http://www.w3.org/2000/svg">
<path d="M39.4098 18.7553C41.7008 18.193 41.7008 17.2401 39.4098 16.6666L34.3497 15.4072C32.0614 14.845 29.7141 12.4892 29.1434 10.201L27.8841 5.14089C27.3218 2.8498 26.366 2.8498 25.7954 5.14089L24.536 10.201C23.9737 12.4892 21.6152 14.8365 19.3269 15.4072L14.2668 16.6666C11.9786 17.2288 11.9786 18.1846 14.2668 18.7553L19.3269 20.0147C21.6152 20.5769 23.9625 22.9355 24.536 25.2237L25.7954 30.2838C26.3576 32.5721 27.3106 32.5721 27.8841 30.2838L29.1434 25.2237C29.7057 22.9355 32.0614 20.5881 34.3497 20.0147L39.4098 18.7553ZM16.9627 6.18663C17.8848 5.95612 17.8848 5.5738 16.9627 5.34329L14.919 4.83447C14.4246 4.68157 13.975 4.41041 13.6091 4.04449C13.2432 3.67857 12.972 3.22893 12.8191 2.73454L12.3103 0.693651C12.0798 -0.231217 11.7003 -0.231217 11.4669 0.693651L10.9581 2.73454C10.8052 3.22893 10.5341 3.67857 10.1681 4.04449C9.80223 4.41041 9.35259 4.68157 8.8582 4.83447L6.81449 5.34329C5.89244 5.5738 5.89244 5.95612 6.81449 6.18663L8.8582 6.69264C9.35225 6.84619 9.80154 7.11757 10.1674 7.4834C10.5332 7.84922 10.8046 8.29852 10.9581 8.79257L11.4669 10.8363C11.6975 11.7583 12.077 11.7583 12.3103 10.8363L12.8191 8.79257C12.9727 8.29852 13.244 7.84922 13.6099 7.4834C13.9757 7.11757 14.425 6.84619 14.919 6.69264L16.9627 6.18663ZM10.9244 24.2848C11.8464 24.0543 11.8464 23.672 10.9244 23.4415L8.88069 22.9355C8.3857 22.7811 7.93578 22.5084 7.56988 22.1411C7.20399 21.7737 6.93313 21.3227 6.78076 20.8271L6.27194 18.7834C6.04143 17.8613 5.66192 17.8613 5.4286 18.7834L4.91135 20.8271C4.7578 21.3211 4.48642 21.7704 4.12059 22.1363C3.75476 22.5021 3.30547 22.7735 2.81142 22.927L0.767714 23.433C-0.154342 23.6635 -0.154342 24.0459 0.767714 24.2764L2.81142 24.7852C3.30675 24.9389 3.75701 25.2113 4.123 25.5788C4.489 25.9463 4.75963 26.3976 4.91135 26.8936L5.42017 28.9344C5.65068 29.8593 6.03018 29.8593 6.26351 28.9344L6.77233 26.8936C6.92522 26.3992 7.19639 25.9495 7.56231 25.5836C7.92823 25.2177 8.37787 24.9465 8.87225 24.7936L10.9244 24.2848Z" fill="#232529"/>
</svg>
