<svg width="32" height="32" viewBox="0 0 32 32" fill="none" xmlns="http://www.w3.org/2000/svg">
<g clip-path="url(#clip0_1994_37)">
<path fill-rule="evenodd" clip-rule="evenodd" d="M11.6759 0C9.91542 0.00130479 8.49061 1.43397 8.49191 3.19935C8.49061 4.96473 9.91672 6.39739 11.6772 6.39869H14.8626V3.20065C14.8639 1.43527 13.4377 0.00260958 11.6759 0C11.6772 0 11.6772 0 11.6759 0ZM11.6759 8.53333H3.18435C1.42383 8.53464 -0.0022742 9.9673 -0.000973006 11.7327C-0.00357539 13.4981 1.42253 14.9307 3.18305 14.9333H11.6759C13.4364 14.932 14.8626 13.4994 14.8613 11.734C14.8626 9.9673 13.4364 8.53464 11.6759 8.53333Z" fill="#36C5F0"/>
<path fill-rule="evenodd" clip-rule="evenodd" d="M31.8466 11.7327C31.8479 9.9673 30.4218 8.53464 28.6613 8.53333C26.9008 8.53464 25.4747 9.9673 25.476 11.7327V14.9333H28.6613C30.4218 14.932 31.8479 13.4994 31.8466 11.7327ZM23.3537 11.7327V3.19935C23.355 1.43527 21.9302 0.00260958 20.1697 0C18.4092 0.00130479 16.9831 1.43397 16.9844 3.19935V11.7327C16.9818 13.4981 18.4079 14.9307 20.1684 14.9333C21.9289 14.932 23.355 13.4994 23.3537 11.7327Z" fill="#2EB67D"/>
<path fill-rule="evenodd" clip-rule="evenodd" d="M20.1687 32C21.9292 31.9987 23.3553 30.566 23.354 28.8007C23.3553 27.0353 21.9292 25.6026 20.1687 25.6013H16.9834V28.8007C16.9821 30.5647 18.4082 31.9974 20.1687 32ZM20.1687 23.4654H28.6616C30.4221 23.4641 31.8482 22.0314 31.8469 20.266C31.8495 18.5006 30.4234 17.068 28.6629 17.0654H20.17C18.4095 17.0667 16.9834 18.4993 16.9847 20.2647C16.9834 22.0314 18.4082 23.4641 20.1687 23.4654Z" fill="#ECB22E"/>
<path fill-rule="evenodd" clip-rule="evenodd" d="M-0.000975673 20.266C-0.00227687 22.0314 1.42383 23.4641 3.18435 23.4654C4.94486 23.4641 6.37097 22.0314 6.36967 20.266V17.0667H3.18435C1.42383 17.068 -0.00227687 18.5006 -0.000975673 20.266ZM8.49191 20.266V28.7993C8.48931 30.5647 9.91542 31.9974 11.6759 32C13.4364 31.9987 14.8626 30.566 14.8613 28.8007V20.2686C14.8639 18.5032 13.4377 17.0706 11.6772 17.068C9.91542 17.068 8.49061 18.5006 8.49191 20.266Z" fill="#E01E5A"/>
</g>
<defs>
<clipPath id="clip0_1994_37">
<rect width="31.848" height="32" fill="white"/>
</clipPath>
</defs>
</svg>
