<svg width="32" height="32" viewBox="0 0 32 32" fill="none" xmlns="http://www.w3.org/2000/svg">
<g clip-path="url(#clip0_1994_2865)">
<path d="M16.0685 3.86982e-06C12.9191 3.86982e-06 9.84032 0.938387 7.22164 2.69649C4.60295 4.45459 2.56193 6.95345 1.35668 9.87707C0.151431 12.8007 -0.163917 16.0177 0.450514 19.1214C1.06494 22.2251 2.58156 25.0761 4.80857 27.3137C7.03558 29.5513 9.87297 31.0752 12.9619 31.6926C16.0509 32.3099 19.2527 31.9931 22.1624 30.7821C25.0721 29.5711 27.5591 27.5203 29.3089 24.8891C31.0586 22.2579 31.9925 19.1645 31.9925 16C31.9927 13.8988 31.5809 11.8181 30.7807 9.87686C29.9805 7.93557 28.8076 6.17168 27.3289 4.6859C25.8502 3.20013 24.0947 2.02159 22.1626 1.21758C20.2305 0.413563 18.1598 -0.000170551 16.0685 3.86982e-06ZM21.1316 24.2439C21.072 24.3933 20.9813 24.5281 20.8656 24.6393C20.7499 24.7505 20.6119 24.8356 20.4608 24.8889C20.3097 24.9422 20.149 24.9623 19.9895 24.9481C19.83 24.9339 19.6754 24.8855 19.536 24.8063L15.2132 21.4313L12.4387 24.0032C12.3743 24.051 12.299 24.0817 12.2197 24.0926C12.1404 24.1035 12.0596 24.0942 11.9849 24.0655L12.5167 19.284L12.5337 19.2975L12.5446 19.2031C12.5446 19.2031 20.3235 12.0871 20.6404 11.7839C20.9612 11.4815 20.8554 11.4159 20.8554 11.4159C20.8736 11.0471 20.2797 11.4159 20.2797 11.4159L9.97283 18.0784L5.68053 16.6096C5.68053 16.6096 5.02128 16.372 4.95918 15.8496C4.89389 15.3312 5.70201 15.0496 5.70201 15.0496L22.7678 8.23759C22.7678 8.23759 24.1707 7.60955 24.1707 8.6496L21.1316 24.2439Z" fill="#6563FF"/>
</g>
<defs>
<clipPath id="clip0_1994_2865">
<rect width="31.848" height="32" fill="white" transform="translate(0.152344)"/>
</clipPath>
</defs>
</svg>
