<svg width="16" height="16" viewBox="0 0 16 16" fill="none" xmlns="http://www.w3.org/2000/svg">
<circle cx="8" cy="8" r="8" fill="url(#paint0_radial_425_2146)"/>
<circle cx="8" cy="8" r="8" fill="black" fill-opacity="0.2"/>
<circle cx="8" cy="8" r="8" fill="url(#paint1_radial_425_2146)"/>
<g clip-path="url(#clip0_425_2146)">
<g clip-path="url(#clip1_425_2146)">
<path d="M6.00081 8C6.00081 6.89547 6.89596 5.99984 8.00049 5.99984C9.10502 5.99984 10.0006 6.89547 10.0006 8C10.0006 9.10453 9.10502 10.0002 8.00049 10.0002C6.89596 10.0002 6.00081 9.10453 6.00081 8ZM4.91956 8C4.91956 9.7016 6.29889 11.0809 8.00049 11.0809C9.70209 11.0809 11.0814 9.7016 11.0814 8C11.0814 6.2984 9.70209 4.91907 8.00049 4.91907C6.29889 4.91907 4.91956 6.2984 4.91956 8ZM10.4834 4.79691C10.4833 4.93931 10.5255 5.07854 10.6046 5.19697C10.6836 5.31541 10.796 5.40774 10.9276 5.46228C11.0591 5.51683 11.2039 5.53115 11.3436 5.50342C11.4832 5.4757 11.6116 5.40717 11.7123 5.30652C11.813 5.20587 11.8817 5.0776 11.9095 4.93795C11.9373 4.79829 11.9231 4.65352 11.8687 4.52193C11.8142 4.39035 11.722 4.27786 11.6036 4.1987C11.4853 4.11954 11.3461 4.07726 11.2037 4.0772H11.2034C11.0125 4.07729 10.8295 4.15314 10.6945 4.28808C10.5595 4.42302 10.4835 4.60603 10.4834 4.79691ZM5.57649 12.8839C4.99151 12.8572 4.67356 12.7598 4.46226 12.6775C4.18214 12.5684 3.98226 12.4385 3.77212 12.2287C3.56198 12.0188 3.4319 11.8191 3.32332 11.539C3.24095 11.3278 3.14351 11.0097 3.11692 10.4248C3.08783 9.79232 3.08202 9.60234 3.08202 8.00005C3.08202 6.39776 3.08831 6.2083 3.11692 5.57533C3.14356 4.99035 3.24172 4.67293 3.32332 4.4611C3.43238 4.18098 3.56226 3.9811 3.77212 3.77096C3.98198 3.56082 4.18166 3.43074 4.46226 3.32216C4.67346 3.23979 4.99151 3.14235 5.57649 3.11576C6.20894 3.08667 6.39892 3.08086 8.00049 3.08086C9.60206 3.08086 9.79223 3.08715 10.4252 3.11576C11.0102 3.1424 11.3276 3.24056 11.5394 3.32216C11.8196 3.43074 12.0194 3.5611 12.2296 3.77096C12.4397 3.98082 12.5693 4.18098 12.6784 4.4611C12.7607 4.6723 12.8582 4.99035 12.8848 5.57533C12.9139 6.2083 12.9197 6.39776 12.9197 8.00005C12.9197 9.60234 12.9139 9.79179 12.8848 10.4248C12.8581 11.0097 12.7602 11.3277 12.6784 11.539C12.5693 11.8191 12.4394 12.019 12.2296 12.2287C12.0197 12.4383 11.8196 12.5684 11.5394 12.6775C11.3282 12.7598 11.0102 12.8573 10.4252 12.8839C9.79276 12.9129 9.60278 12.9188 8.00049 12.9188C6.3982 12.9188 6.20874 12.9129 5.57649 12.8839ZM5.52681 2.03634C4.88807 2.06542 4.45161 2.1667 4.07044 2.31502C3.67569 2.46819 3.34151 2.67368 3.00758 3.00709C2.67364 3.3405 2.46868 3.6752 2.31551 4.06995C2.16719 4.45136 2.06591 4.88758 2.03682 5.52632C2.00726 6.16606 2.00049 6.37059 2.00049 8C2.00049 9.62941 2.00726 9.83394 2.03682 10.4737C2.06591 11.1125 2.16719 11.5486 2.31551 11.93C2.46868 12.3246 2.67369 12.6596 3.00758 12.9929C3.34146 13.3262 3.67569 13.5314 4.07044 13.685C4.45233 13.8333 4.88807 13.9346 5.52681 13.9637C6.16689 13.9928 6.37108 14 8.00049 14C9.6299 14 9.83442 13.9932 10.4742 13.9637C11.113 13.9346 11.5491 13.8333 11.9305 13.685C12.325 13.5314 12.6595 13.3263 12.9934 12.9929C13.3273 12.6595 13.5319 12.3246 13.6855 11.93C13.8338 11.5486 13.9355 11.1124 13.9642 10.4737C13.9932 9.83346 14 9.62941 14 8C14 6.37059 13.9932 6.16606 13.9642 5.52632C13.9351 4.88754 13.8338 4.45112 13.6855 4.06995C13.5319 3.67544 13.3268 3.34102 12.9934 3.00709C12.66 2.67315 12.325 2.46819 11.931 2.31502C11.5491 2.1667 11.1129 2.06494 10.4746 2.03634C9.8349 2.00725 9.63038 2 8.00097 2C6.37156 2 6.16689 2.00677 5.52681 2.03634Z" fill="url(#paint2_radial_425_2146)"/>
<path d="M6.00081 8C6.00081 6.89547 6.89596 5.99984 8.00049 5.99984C9.10502 5.99984 10.0006 6.89547 10.0006 8C10.0006 9.10453 9.10502 10.0002 8.00049 10.0002C6.89596 10.0002 6.00081 9.10453 6.00081 8ZM4.91956 8C4.91956 9.7016 6.29889 11.0809 8.00049 11.0809C9.70209 11.0809 11.0814 9.7016 11.0814 8C11.0814 6.2984 9.70209 4.91907 8.00049 4.91907C6.29889 4.91907 4.91956 6.2984 4.91956 8ZM10.4834 4.79691C10.4833 4.93931 10.5255 5.07854 10.6046 5.19697C10.6836 5.31541 10.796 5.40774 10.9276 5.46228C11.0591 5.51683 11.2039 5.53115 11.3436 5.50342C11.4832 5.4757 11.6116 5.40717 11.7123 5.30652C11.813 5.20587 11.8817 5.0776 11.9095 4.93795C11.9373 4.79829 11.9231 4.65352 11.8687 4.52193C11.8142 4.39035 11.722 4.27786 11.6036 4.1987C11.4853 4.11954 11.3461 4.07726 11.2037 4.0772H11.2034C11.0125 4.07729 10.8295 4.15314 10.6945 4.28808C10.5595 4.42302 10.4835 4.60603 10.4834 4.79691ZM5.57649 12.8839C4.99151 12.8572 4.67356 12.7598 4.46226 12.6775C4.18214 12.5684 3.98226 12.4385 3.77212 12.2287C3.56198 12.0188 3.4319 11.8191 3.32332 11.539C3.24095 11.3278 3.14351 11.0097 3.11692 10.4248C3.08783 9.79232 3.08202 9.60234 3.08202 8.00005C3.08202 6.39776 3.08831 6.2083 3.11692 5.57533C3.14356 4.99035 3.24172 4.67293 3.32332 4.4611C3.43238 4.18098 3.56226 3.9811 3.77212 3.77096C3.98198 3.56082 4.18166 3.43074 4.46226 3.32216C4.67346 3.23979 4.99151 3.14235 5.57649 3.11576C6.20894 3.08667 6.39892 3.08086 8.00049 3.08086C9.60206 3.08086 9.79223 3.08715 10.4252 3.11576C11.0102 3.1424 11.3276 3.24056 11.5394 3.32216C11.8196 3.43074 12.0194 3.5611 12.2296 3.77096C12.4397 3.98082 12.5693 4.18098 12.6784 4.4611C12.7607 4.6723 12.8582 4.99035 12.8848 5.57533C12.9139 6.2083 12.9197 6.39776 12.9197 8.00005C12.9197 9.60234 12.9139 9.79179 12.8848 10.4248C12.8581 11.0097 12.7602 11.3277 12.6784 11.539C12.5693 11.8191 12.4394 12.019 12.2296 12.2287C12.0197 12.4383 11.8196 12.5684 11.5394 12.6775C11.3282 12.7598 11.0102 12.8573 10.4252 12.8839C9.79276 12.9129 9.60278 12.9188 8.00049 12.9188C6.3982 12.9188 6.20874 12.9129 5.57649 12.8839ZM5.52681 2.03634C4.88807 2.06542 4.45161 2.1667 4.07044 2.31502C3.67569 2.46819 3.34151 2.67368 3.00758 3.00709C2.67364 3.3405 2.46868 3.6752 2.31551 4.06995C2.16719 4.45136 2.06591 4.88758 2.03682 5.52632C2.00726 6.16606 2.00049 6.37059 2.00049 8C2.00049 9.62941 2.00726 9.83394 2.03682 10.4737C2.06591 11.1125 2.16719 11.5486 2.31551 11.93C2.46868 12.3246 2.67369 12.6596 3.00758 12.9929C3.34146 13.3262 3.67569 13.5314 4.07044 13.685C4.45233 13.8333 4.88807 13.9346 5.52681 13.9637C6.16689 13.9928 6.37108 14 8.00049 14C9.6299 14 9.83442 13.9932 10.4742 13.9637C11.113 13.9346 11.5491 13.8333 11.9305 13.685C12.325 13.5314 12.6595 13.3263 12.9934 12.9929C13.3273 12.6595 13.5319 12.3246 13.6855 11.93C13.8338 11.5486 13.9355 11.1124 13.9642 10.4737C13.9932 9.83346 14 9.62941 14 8C14 6.37059 13.9932 6.16606 13.9642 5.52632C13.9351 4.88754 13.8338 4.45112 13.6855 4.06995C13.5319 3.67544 13.3268 3.34102 12.9934 3.00709C12.66 2.67315 12.325 2.46819 11.931 2.31502C11.5491 2.1667 11.1129 2.06494 10.4746 2.03634C9.8349 2.00725 9.63038 2 8.00097 2C6.37156 2 6.16689 2.00677 5.52681 2.03634Z" fill="black" fill-opacity="0.2"/>
<path d="M6.00081 8C6.00081 6.89547 6.89596 5.99984 8.00049 5.99984C9.10502 5.99984 10.0006 6.89547 10.0006 8C10.0006 9.10453 9.10502 10.0002 8.00049 10.0002C6.89596 10.0002 6.00081 9.10453 6.00081 8ZM4.91956 8C4.91956 9.7016 6.29889 11.0809 8.00049 11.0809C9.70209 11.0809 11.0814 9.7016 11.0814 8C11.0814 6.2984 9.70209 4.91907 8.00049 4.91907C6.29889 4.91907 4.91956 6.2984 4.91956 8ZM10.4834 4.79691C10.4833 4.93931 10.5255 5.07854 10.6046 5.19697C10.6836 5.31541 10.796 5.40774 10.9276 5.46228C11.0591 5.51683 11.2039 5.53115 11.3436 5.50342C11.4832 5.4757 11.6116 5.40717 11.7123 5.30652C11.813 5.20587 11.8817 5.0776 11.9095 4.93795C11.9373 4.79829 11.9231 4.65352 11.8687 4.52193C11.8142 4.39035 11.722 4.27786 11.6036 4.1987C11.4853 4.11954 11.3461 4.07726 11.2037 4.0772H11.2034C11.0125 4.07729 10.8295 4.15314 10.6945 4.28808C10.5595 4.42302 10.4835 4.60603 10.4834 4.79691ZM5.57649 12.8839C4.99151 12.8572 4.67356 12.7598 4.46226 12.6775C4.18214 12.5684 3.98226 12.4385 3.77212 12.2287C3.56198 12.0188 3.4319 11.8191 3.32332 11.539C3.24095 11.3278 3.14351 11.0097 3.11692 10.4248C3.08783 9.79232 3.08202 9.60234 3.08202 8.00005C3.08202 6.39776 3.08831 6.2083 3.11692 5.57533C3.14356 4.99035 3.24172 4.67293 3.32332 4.4611C3.43238 4.18098 3.56226 3.9811 3.77212 3.77096C3.98198 3.56082 4.18166 3.43074 4.46226 3.32216C4.67346 3.23979 4.99151 3.14235 5.57649 3.11576C6.20894 3.08667 6.39892 3.08086 8.00049 3.08086C9.60206 3.08086 9.79223 3.08715 10.4252 3.11576C11.0102 3.1424 11.3276 3.24056 11.5394 3.32216C11.8196 3.43074 12.0194 3.5611 12.2296 3.77096C12.4397 3.98082 12.5693 4.18098 12.6784 4.4611C12.7607 4.6723 12.8582 4.99035 12.8848 5.57533C12.9139 6.2083 12.9197 6.39776 12.9197 8.00005C12.9197 9.60234 12.9139 9.79179 12.8848 10.4248C12.8581 11.0097 12.7602 11.3277 12.6784 11.539C12.5693 11.8191 12.4394 12.019 12.2296 12.2287C12.0197 12.4383 11.8196 12.5684 11.5394 12.6775C11.3282 12.7598 11.0102 12.8573 10.4252 12.8839C9.79276 12.9129 9.60278 12.9188 8.00049 12.9188C6.3982 12.9188 6.20874 12.9129 5.57649 12.8839ZM5.52681 2.03634C4.88807 2.06542 4.45161 2.1667 4.07044 2.31502C3.67569 2.46819 3.34151 2.67368 3.00758 3.00709C2.67364 3.3405 2.46868 3.6752 2.31551 4.06995C2.16719 4.45136 2.06591 4.88758 2.03682 5.52632C2.00726 6.16606 2.00049 6.37059 2.00049 8C2.00049 9.62941 2.00726 9.83394 2.03682 10.4737C2.06591 11.1125 2.16719 11.5486 2.31551 11.93C2.46868 12.3246 2.67369 12.6596 3.00758 12.9929C3.34146 13.3262 3.67569 13.5314 4.07044 13.685C4.45233 13.8333 4.88807 13.9346 5.52681 13.9637C6.16689 13.9928 6.37108 14 8.00049 14C9.6299 14 9.83442 13.9932 10.4742 13.9637C11.113 13.9346 11.5491 13.8333 11.9305 13.685C12.325 13.5314 12.6595 13.3263 12.9934 12.9929C13.3273 12.6595 13.5319 12.3246 13.6855 11.93C13.8338 11.5486 13.9355 11.1124 13.9642 10.4737C13.9932 9.83346 14 9.62941 14 8C14 6.37059 13.9932 6.16606 13.9642 5.52632C13.9351 4.88754 13.8338 4.45112 13.6855 4.06995C13.5319 3.67544 13.3268 3.34102 12.9934 3.00709C12.66 2.67315 12.325 2.46819 11.931 2.31502C11.5491 2.1667 11.1129 2.06494 10.4746 2.03634C9.8349 2.00725 9.63038 2 8.00097 2C6.37156 2 6.16689 2.00677 5.52681 2.03634Z" fill="white"/>
</g>
</g>
<defs>
<radialGradient id="paint0_radial_425_2146" cx="0" cy="0" r="1" gradientUnits="userSpaceOnUse" gradientTransform="translate(2.12578 16.0756) scale(20.8875 20.8867)">
<stop offset="0.09" stop-color="#FA8F21"/>
<stop offset="0.78" stop-color="#D82D7E"/>
</radialGradient>
<radialGradient id="paint1_radial_425_2146" cx="0" cy="0" r="1" gradientUnits="userSpaceOnUse" gradientTransform="translate(9.70368 16.7924) scale(16.4622 16.4616)">
<stop offset="0.64" stop-color="#8C3AAA" stop-opacity="0"/>
<stop offset="1" stop-color="#8C3AAA"/>
</radialGradient>
<radialGradient id="paint2_radial_425_2146" cx="0" cy="0" r="1" gradientUnits="userSpaceOnUse" gradientTransform="translate(3.59476 14.0567) scale(15.665)">
<stop offset="0.09" stop-color="#FA8F21"/>
<stop offset="0.78" stop-color="#D82D7E"/>
</radialGradient>
<clipPath id="clip0_425_2146">
<rect width="12" height="12" fill="white" transform="translate(2 2)"/>
</clipPath>
<clipPath id="clip1_425_2146">
<rect width="12" height="12" fill="white" transform="translate(2 2)"/>
</clipPath>
</defs>
</svg>
