<svg width="24" height="24" viewBox="0 0 24 24" fill="none" xmlns="http://www.w3.org/2000/svg">
<mask id="mask0_425_2179" style="mask-type:alpha" maskUnits="userSpaceOnUse" x="0" y="0" width="24" height="24">
<rect width="24" height="24" fill="#D9D9D9"/>
</mask>
<g mask="url(#mask0_425_2179)">
</g>
<path d="M16.7301 15.32C17.7309 14.0222 18.2725 12.4289 18.2701 10.79C18.2701 9.3106 17.8314 7.86442 17.0095 6.63434C16.1875 5.40426 15.0193 4.44553 13.6525 3.87938C12.2857 3.31324 10.7818 3.16511 9.33079 3.45373C7.87981 3.74234 6.547 4.45475 5.5009 5.50084C4.45481 6.54694 3.74241 7.87975 3.45379 9.33073C3.16517 10.7817 3.3133 12.2857 3.87944 13.6525C4.44559 15.0193 5.40432 16.1875 6.6344 17.0094C7.86448 17.8313 9.31066 18.27 10.7901 18.27C12.4289 18.2725 14.0223 17.7308 15.3201 16.73L19.0901 20.5L20.5001 19.09L16.7301 15.32ZM5.31006 10.79C5.31006 9.70616 5.63146 8.64666 6.23361 7.74548C6.83576 6.8443 7.69162 6.14191 8.69296 5.72714C9.6943 5.31237 10.7961 5.20385 11.8592 5.4153C12.9222 5.62674 13.8986 6.14866 14.665 6.91506C15.4314 7.68145 15.9533 8.65789 16.1648 9.72091C16.3762 10.7839 16.2677 11.8858 15.8529 12.8871C15.4382 13.8884 14.7358 14.7443 13.8346 15.3465C12.9334 15.9486 11.8739 16.27 10.7901 16.27C9.33749 16.2674 7.94516 15.6892 6.91804 14.662C5.89091 13.6349 5.31271 12.2426 5.31006 10.79Z" fill="#232529"/>
</svg>
