<svg width="16" height="16" viewBox="0 0 16 16" fill="none" xmlns="http://www.w3.org/2000/svg">
<circle cx="8" cy="8" r="8" fill="white"/>
<g clip-path="url(#clip0_425_2160)">
<path fill-rule="evenodd" clip-rule="evenodd" d="M6.39974 2C5.7364 2.00049 5.19954 2.53774 5.20003 3.19976C5.19954 3.86177 5.73689 4.39902 6.40023 4.39951H7.60043V3.20024C7.60092 2.53823 7.06357 2.00098 6.39974 2C6.40023 2 6.40023 2 6.39974 2ZM6.39974 5.2H3.2002C2.53685 5.20049 1.99951 5.73774 2 6.39976C1.99902 7.06177 2.53636 7.59902 3.19971 7.6H6.39974C7.06308 7.59951 7.60043 7.06226 7.59994 6.40024C7.60043 5.73774 7.06308 5.20049 6.39974 5.2Z" fill="#36C5F0"/>
<path fill-rule="evenodd" clip-rule="evenodd" d="M14.0001 6.39976C14.0006 5.73774 13.4632 5.20049 12.7999 5.2C12.1365 5.20049 11.5992 5.73774 11.5997 6.39976V7.6H12.7999C13.4632 7.59951 14.0006 7.06226 14.0001 6.39976ZM10.8 6.39976V3.19976C10.8005 2.53823 10.2637 2.00098 9.60034 2C8.937 2.00049 8.39966 2.53774 8.40015 3.19976V6.39976C8.39917 7.06177 8.93651 7.59902 9.59985 7.6C10.2632 7.59951 10.8005 7.06226 10.8 6.39976Z" fill="#2EB67D"/>
<path fill-rule="evenodd" clip-rule="evenodd" d="M9.59985 14C10.2632 13.9995 10.8005 13.4623 10.8001 12.8002C10.8005 12.1382 10.2632 11.601 9.59985 11.6005H8.39966V12.8002C8.39917 13.4618 8.93651 13.999 9.59985 14ZM9.59985 10.7995H12.7999C13.4632 10.799 14.0006 10.2618 14.0001 9.59976C14.0011 8.93774 13.4637 8.40049 12.8004 8.39951H9.60034C8.937 8.4 8.39966 8.93725 8.40015 9.59927C8.39966 10.2618 8.93651 10.799 9.59985 10.7995Z" fill="#ECB22E"/>
<path fill-rule="evenodd" clip-rule="evenodd" d="M2 9.59976C1.99951 10.2618 2.53685 10.799 3.2002 10.7995C3.86354 10.799 4.40088 10.2618 4.40039 9.59976V8.4H3.2002C2.53685 8.40049 1.99951 8.93774 2 9.59976ZM5.20003 9.59976V12.7998C5.19905 13.4618 5.7364 13.999 6.39974 14C7.06308 13.9995 7.60043 13.4623 7.59994 12.8002V9.60074C7.60092 8.93872 7.06357 8.40147 6.40023 8.40049C5.7364 8.40049 5.19954 8.93774 5.20003 9.59976Z" fill="#E01E5A"/>
</g>
<defs>
<clipPath id="clip0_425_2160">
<rect width="12" height="12" fill="white" transform="translate(2 2)"/>
</clipPath>
</defs>
</svg>
