<svg width="16" height="16" viewBox="0 0 16 16" fill="none" xmlns="http://www.w3.org/2000/svg">
<circle cx="8" cy="8" r="8" fill="white"/>
<path d="M2 14L2.8435 10.9185C2.323 10.0165 2.0495 8.99398 2.05 7.94549C2.0515 4.66749 4.71899 2 7.99649 2C9.58698 2.0005 11.08 2.62 12.203 3.744C13.3255 4.86799 13.9435 6.36199 13.943 7.95099C13.9415 11.2295 11.274 13.897 7.99649 13.897C7.00149 13.8965 6.02099 13.647 5.15249 13.173L2 14ZM5.29849 12.0965C6.13649 12.594 6.93649 12.892 7.99449 12.8925C10.7185 12.8925 12.9375 10.6755 12.939 7.94999C12.94 5.21899 10.7315 3.005 7.99849 3.004C5.27249 3.004 3.055 5.22099 3.054 7.94599C3.0535 9.05848 3.3795 9.89148 3.927 10.763L3.4275 12.587L5.29849 12.0965ZM10.992 9.36448C10.955 9.30248 10.856 9.26548 10.707 9.19098C10.5585 9.11648 9.82798 8.75699 9.69148 8.70749C9.55548 8.65799 9.45648 8.63299 9.35698 8.78199C9.25798 8.93048 8.97298 9.26548 8.88648 9.36448C8.79998 9.46348 8.71298 9.47598 8.56449 9.40148C8.41599 9.32698 7.93699 9.17048 7.36949 8.66399C6.92799 8.26999 6.62949 7.78349 6.54299 7.63449C6.45649 7.48599 6.53399 7.40549 6.60799 7.33149C6.67499 7.26499 6.75649 7.15799 6.83099 7.07099C6.90649 6.98499 6.93099 6.92299 6.98099 6.82349C7.03049 6.72449 7.00599 6.63749 6.96849 6.56299C6.93099 6.48899 6.63399 5.75749 6.51049 5.45999C6.38949 5.17049 6.26699 5.20949 6.17599 5.20499L5.89099 5.19999C5.79199 5.19999 5.63099 5.23699 5.49499 5.38599C5.35899 5.53499 4.97499 5.89399 4.97499 6.62549C4.97499 7.35699 5.50749 8.06349 5.58149 8.16249C5.65599 8.26149 6.62899 9.76248 8.11949 10.406C8.47399 10.559 8.75098 10.6505 8.96648 10.719C9.32248 10.832 9.64648 10.816 9.90248 10.778C10.188 10.7355 10.7815 10.4185 10.9055 10.0715C11.0295 9.72398 11.0295 9.42648 10.992 9.36448Z" fill="#25D366"/>
</svg>
