<svg width="21" height="20" viewBox="0 0 21 20" fill="none" xmlns="http://www.w3.org/2000/svg">
<mask id="mask0_4210_1117" style="mask-type:alpha" maskUnits="userSpaceOnUse" x="0" y="0" width="21" height="20">
<rect x="0.5" width="20" height="20" fill="#D9D9D9"/>
</mask>
<g mask="url(#mask0_4210_1117)">
<path d="M5 17C4.5875 17 4.23437 16.8531 3.94062 16.5594C3.64687 16.2656 3.5 15.9125 3.5 15.5V4.5C3.5 4.0875 3.64687 3.73438 3.94062 3.44063C4.23437 3.14688 4.5875 3 5 3H10.5V4.5H5V15.5H16V10H17.5V15.5C17.5 15.9125 17.3531 16.2656 17.0594 16.5594C16.7656 16.8531 16.4125 17 16 17H5ZM8.5625 13L7.5 11.9375L14.9375 4.5H12.5V3H17.5V8H16V5.5625L8.5625 13Z" fill="#1B1F26" fill-opacity="0.72"/>
</g>
</svg>
