<svg width="21" height="20" viewBox="0 0 21 20" fill="none" xmlns="http://www.w3.org/2000/svg">
<g clip-path="url(#clip0_1413_3574)">
<path d="M16.1399 13.6057C17.2451 12.1725 17.8433 10.4129 17.8406 8.60298C17.8406 6.96918 17.3561 5.37207 16.4484 4.01362C15.5407 2.65517 14.2506 1.59638 12.7412 0.971153C11.2317 0.345925 9.57081 0.182337 7.9684 0.501076C6.36599 0.819814 4.89409 1.60656 3.73882 2.76183C2.58355 3.9171 1.7968 5.38901 1.47807 6.99141C1.15933 8.59382 1.32292 10.2548 1.94814 11.7642C2.57337 13.2736 3.63216 14.5638 4.99061 15.4714C6.34906 16.3791 7.94617 16.8636 9.57997 16.8636C11.3899 16.8663 13.1495 16.2681 14.5827 15.1629L18.7462 19.3263L20.3033 17.7692L16.1399 13.6057ZM3.52806 8.60298C3.52806 7.40603 3.883 6.23595 4.54799 5.24072C5.21299 4.24549 6.15816 3.4698 7.26401 3.01175C8.36985 2.55369 9.58668 2.43385 10.7606 2.66736C11.9346 2.90087 13.0129 3.47726 13.8593 4.32364C14.7057 5.17001 15.2821 6.24836 15.5156 7.42231C15.7491 8.59627 15.6293 9.8131 15.1712 10.9189C14.7131 12.0248 13.9375 12.97 12.9422 13.635C11.947 14.2999 10.7769 14.6549 9.57997 14.6549C7.9758 14.652 6.43817 14.0134 5.30385 12.8791C4.16953 11.7448 3.53098 10.2071 3.52806 8.60298Z" fill="#232529"/>
</g>
<defs>
<clipPath id="clip0_1413_3574">
<rect width="20" height="20" fill="white" transform="translate(0.977539)"/>
</clipPath>
</defs>
</svg>
