<svg width="25" height="25" viewBox="0 0 25 25" fill="none" xmlns="http://www.w3.org/2000/svg">
<mask id="mask0_4166_3752" style="mask-type:alpha" maskUnits="userSpaceOnUse" x="0" y="0" width="25" height="25">
<rect x="0.5" y="0.772217" width="24" height="24" fill="#D9D9D9"/>
</mask>
<g mask="url(#mask0_4166_3752)">
<path d="M18.5 13.7722V11.7722H22.5V13.7722H18.5ZM19.7 20.7722L16.5 18.3722L17.7 16.7722L20.9 19.1722L19.7 20.7722ZM17.7 8.77222L16.5 7.17222L19.7 4.77222L20.9 6.37222L17.7 8.77222ZM5.5 19.7722V15.7722H4.5C3.95 15.7722 3.47917 15.5764 3.0875 15.1847C2.69583 14.7931 2.5 14.3222 2.5 13.7722V11.7722C2.5 11.2222 2.69583 10.7514 3.0875 10.3597C3.47917 9.96805 3.95 9.77222 4.5 9.77222H8.5L13.5 6.77222V18.7722L8.5 15.7722H7.5V19.7722H5.5ZM11.5 15.2222V10.3222L9.05 11.7722H4.5V13.7722H9.05L11.5 15.2222ZM14.5 16.1222V9.42222C14.95 9.82222 15.3125 10.3097 15.5875 10.8847C15.8625 11.4597 16 12.0889 16 12.7722C16 13.4556 15.8625 14.0847 15.5875 14.6597C15.3125 15.2347 14.95 15.7222 14.5 16.1222Z" fill="#232529"/>
</g>
</svg>
