<svg width="20" height="21" viewBox="0 0 20 21" fill="none" xmlns="http://www.w3.org/2000/svg">
<mask id="mask0_4166_3762" style="mask-type:alpha" maskUnits="userSpaceOnUse" x="0" y="0" width="20" height="21">
<rect y="0.38208" width="20" height="20" fill="#D9D9D9"/>
</mask>
<g mask="url(#mask0_4166_3762)">
<path d="M7.16667 12.4446C7.27778 12.1251 7.36111 11.7918 7.41667 11.4446C7.47222 11.0974 7.5 10.7432 7.5 10.3821C7.5 10.021 7.47222 9.6668 7.41667 9.31958C7.36111 8.97236 7.27778 8.63902 7.16667 8.31958L5.75 8.88208C5.83333 9.11819 5.89583 9.36125 5.9375 9.61125C5.97917 9.86125 6 10.1182 6 10.3821C6 10.646 5.97917 10.9029 5.9375 11.1529C5.89583 11.4029 5.83333 11.646 5.75 11.8821L7.16667 12.4446ZM9.89583 13.5487C10.0903 13.0626 10.2396 12.5592 10.3438 12.0383C10.4479 11.5175 10.5 10.9654 10.5 10.3821C10.5 9.79875 10.4479 9.24666 10.3438 8.72583C10.2396 8.205 10.0903 7.70152 9.89583 7.21541L8.5 7.77791C8.65278 8.1668 8.77431 8.58 8.86458 9.0175C8.95486 9.455 9 9.90986 9 10.3821C9 10.8543 8.95486 11.3092 8.86458 11.7467C8.77431 12.1842 8.65278 12.5974 8.5 12.9862L9.89583 13.5487ZM12.6458 14.6321C12.9236 14.0071 13.1354 13.3404 13.2812 12.6321C13.4271 11.9237 13.5 11.1737 13.5 10.3821C13.5 9.59041 13.4271 8.84041 13.2812 8.13208C13.1354 7.42375 12.9236 6.75708 12.6458 6.13208L11.25 6.67375C11.4861 7.20152 11.6701 7.78139 11.8021 8.41333C11.934 9.04527 12 9.70152 12 10.3821C12 11.0626 11.934 11.7189 11.8021 12.3508C11.6701 12.9828 11.4861 13.5626 11.25 14.0904L12.6458 14.6321ZM10 18.3821C8.90278 18.3821 7.86806 18.1737 6.89583 17.7571C5.92361 17.3404 5.07292 16.7675 4.34375 16.0383C3.61458 15.3092 3.04167 14.4585 2.625 13.4862C2.20833 12.514 2 11.4793 2 10.3821C2 9.27097 2.20833 8.23277 2.625 7.2675C3.04167 6.30222 3.61458 5.455 4.34375 4.72583C5.07292 3.99666 5.92361 3.42375 6.89583 3.00708C7.86806 2.59041 8.90278 2.38208 10 2.38208C11.1111 2.38208 12.1493 2.59041 13.1146 3.00708C14.0799 3.42375 14.9271 3.99666 15.6562 4.72583C16.3854 5.455 16.9583 6.30222 17.375 7.2675C17.7917 8.23277 18 9.27097 18 10.3821C18 11.4793 17.7917 12.514 17.375 13.4862C16.9583 14.4585 16.3854 15.3092 15.6562 16.0383C14.9271 16.7675 14.0799 17.3404 13.1146 17.7571C12.1493 18.1737 11.1111 18.3821 10 18.3821ZM10 16.8821C11.8056 16.8821 13.3403 16.2501 14.6042 14.9862C15.8681 13.7224 16.5 12.1876 16.5 10.3821C16.5 8.57652 15.8681 7.0418 14.6042 5.77791C13.3403 4.51402 11.8056 3.88208 10 3.88208C8.19444 3.88208 6.65972 4.51402 5.39583 5.77791C4.13194 7.0418 3.5 8.57652 3.5 10.3821C3.5 12.1876 4.13194 13.7224 5.39583 14.9862C6.65972 16.2501 8.19444 16.8821 10 16.8821Z" fill="#232529"/>
</g>
</svg>
