<svg width="41" height="42" viewBox="0 0 41 42" fill="none" xmlns="http://www.w3.org/2000/svg">
<rect y="0.38208" width="40" height="40" rx="9" fill="#232529"/>
<mask id="mask0_4166_3743" style="mask-type:alpha" maskUnits="userSpaceOnUse" x="8" y="8" width="24" height="25">
<rect x="8" y="8.38208" width="24" height="24" fill="#D9D9D9"/>
</mask>
<g mask="url(#mask0_4166_3743)">
<path d="M12 28.3821C11.45 28.3821 10.9792 28.1862 10.5875 27.7946C10.1958 27.4029 10 26.9321 10 26.3821V14.3821C10 13.8321 10.1958 13.3612 10.5875 12.9696C10.9792 12.5779 11.45 12.3821 12 12.3821H22.1C22.0333 12.7154 22 13.0487 22 13.3821C22 13.7154 22.0333 14.0487 22.1 14.3821H12L20 19.3821L23.65 17.1071C23.8833 17.3237 24.1375 17.5112 24.4125 17.6696C24.6875 17.8279 24.975 17.9654 25.275 18.0821L20 21.3821L12 16.3821V26.3821H28V18.2821C28.3833 18.1987 28.7417 18.0821 29.075 17.9321C29.4083 17.7821 29.7167 17.5987 30 17.3821V26.3821C30 26.9321 29.8042 27.4029 29.4125 27.7946C29.0208 28.1862 28.55 28.3821 28 28.3821H12ZM27 16.3821C26.1667 16.3821 25.4583 16.0904 24.875 15.5071C24.2917 14.9237 24 14.2154 24 13.3821C24 12.5487 24.2917 11.8404 24.875 11.2571C25.4583 10.6737 26.1667 10.3821 27 10.3821C27.8333 10.3821 28.5417 10.6737 29.125 11.2571C29.7083 11.8404 30 12.5487 30 13.3821C30 14.2154 29.7083 14.9237 29.125 15.5071C28.5417 16.0904 27.8333 16.3821 27 16.3821Z" fill="white"/>
</g>
</svg>
