<svg width="21" height="21" viewBox="0 0 21 21" fill="none" xmlns="http://www.w3.org/2000/svg">
<mask id="mask0_4166_3749" style="mask-type:alpha" maskUnits="userSpaceOnUse" x="0" y="0" width="21" height="21">
<rect x="0.5" y="0.772217" width="20" height="20" fill="#D9D9D9"/>
</mask>
<g mask="url(#mask0_4166_3749)">
<path d="M0.5 15.7722V14.5431C0.5 13.8347 0.8125 13.2792 1.4375 12.8764C2.0625 12.4736 2.91667 12.2722 4 12.2722C4.20833 12.2722 4.41667 12.2826 4.625 12.3035C4.83333 12.3243 5.04167 12.3556 5.25 12.3972C5.01389 12.675 4.82986 12.9875 4.69792 13.3347C4.56597 13.6819 4.5 14.0331 4.5 14.3881V15.7722H0.5ZM5.5 15.7722V14.5014C5.5 14.1144 5.60069 13.7608 5.80208 13.4403C6.00347 13.1199 6.27083 12.8764 6.60417 12.7097C7.21528 12.4042 7.84722 12.1715 8.5 12.0118C9.15278 11.8521 9.81618 11.7722 10.4902 11.7722C11.1773 11.7722 11.8472 11.8521 12.5 12.0118C13.1528 12.1715 13.7847 12.4042 14.3958 12.7097C14.7292 12.8764 14.9965 13.1199 15.1979 13.4403C15.3993 13.7608 15.5 14.1144 15.5 14.5014V15.7722H5.5ZM16.5 15.7722V14.3687C16.5 13.9944 16.434 13.6417 16.3021 13.3106C16.1701 12.9794 15.9861 12.675 15.75 12.3972C15.9861 12.3556 16.2049 12.3243 16.4062 12.3035C16.6076 12.2826 16.8056 12.2722 17 12.2722C18.0833 12.2722 18.9375 12.4736 19.5625 12.8764C20.1875 13.2792 20.5 13.8347 20.5 14.5431V15.7722H16.5ZM7.04167 14.2722H13.9583C13.8611 14.0361 13.4479 13.8104 12.7188 13.5951C11.9896 13.3799 11.25 13.2722 10.5 13.2722C9.75 13.2722 9.01042 13.3799 8.28125 13.5951C7.55208 13.8104 7.13889 14.0361 7.04167 14.2722ZM3.99563 11.2722C3.58188 11.2722 3.22917 11.1262 2.9375 10.8341C2.64583 10.5421 2.5 10.1911 2.5 9.78097C2.5 9.35847 2.64604 9.00138 2.93813 8.70972C3.23007 8.41805 3.58111 8.27222 3.99125 8.27222C4.41375 8.27222 4.77083 8.41638 5.0625 8.70472C5.35417 8.99305 5.5 9.35034 5.5 9.77659C5.5 10.1903 5.35583 10.5431 5.0675 10.8347C4.77917 11.1264 4.42188 11.2722 3.99563 11.2722ZM16.9956 11.2722C16.5819 11.2722 16.2292 11.1262 15.9375 10.8341C15.6458 10.5421 15.5 10.1911 15.5 9.78097C15.5 9.35847 15.646 9.00138 15.9381 8.70972C16.2301 8.41805 16.5811 8.27222 16.9913 8.27222C17.4138 8.27222 17.7708 8.41638 18.0625 8.70472C18.3542 8.99305 18.5 9.35034 18.5 9.77659C18.5 10.1903 18.3558 10.5431 18.0675 10.8347C17.7792 11.1264 17.4219 11.2722 16.9956 11.2722ZM10.4896 10.7722C9.80208 10.7722 9.21528 10.5292 8.72917 10.0431C8.24306 9.55694 8 8.96666 8 8.27222C8 7.57777 8.24306 6.98749 8.72917 6.50138C9.21528 6.01527 9.80556 5.77222 10.5 5.77222C11.1944 5.77222 11.7847 6.01527 12.2708 6.50138C12.7569 6.98749 13 7.58124 13 8.28263C13 8.97013 12.7569 9.55694 12.2708 10.0431C11.7847 10.5292 11.191 10.7722 10.4896 10.7722ZM10.5 9.27222C10.7833 9.27222 11.0208 9.17638 11.2125 8.98472C11.4042 8.79305 11.5 8.55555 11.5 8.27222C11.5 7.98888 11.4042 7.75138 11.2125 7.55972C11.0208 7.36805 10.7833 7.27222 10.5 7.27222C10.2167 7.27222 9.97917 7.36805 9.7875 7.55972C9.59583 7.75138 9.5 7.98888 9.5 8.27222C9.5 8.55555 9.59583 8.79305 9.7875 8.98472C9.97917 9.17638 10.2167 9.27222 10.5 9.27222Z" fill="#232529"/>
</g>
</svg>
