<svg width="24" height="25" viewBox="0 0 24 25" fill="none" xmlns="http://www.w3.org/2000/svg">
<mask id="mask0_4166_3745" style="mask-type:alpha" maskUnits="userSpaceOnUse" x="0" y="0" width="24" height="25">
<rect y="0.38208" width="24" height="24" fill="#D9D9D9"/>
</mask>
<g mask="url(#mask0_4166_3745)">
<path d="M4 20.3821C3.45 20.3821 2.97917 20.1862 2.5875 19.7946C2.19583 19.4029 2 18.9321 2 18.3821V6.38208C2 5.83208 2.19583 5.36125 2.5875 4.96958C2.97917 4.57791 3.45 4.38208 4 4.38208H14.1C14.0333 4.71541 14 5.04875 14 5.38208C14 5.71541 14.0333 6.04875 14.1 6.38208H4L12 11.3821L15.65 9.10708C15.8833 9.32375 16.1375 9.51125 16.4125 9.66958C16.6875 9.82791 16.975 9.96541 17.275 10.0821L12 13.3821L4 8.38208V18.3821H20V10.2821C20.3833 10.1987 20.7417 10.0821 21.075 9.93208C21.4083 9.78208 21.7167 9.59875 22 9.38208V18.3821C22 18.9321 21.8042 19.4029 21.4125 19.7946C21.0208 20.1862 20.55 20.3821 20 20.3821H4ZM19 8.38208C18.1667 8.38208 17.4583 8.09041 16.875 7.50708C16.2917 6.92375 16 6.21541 16 5.38208C16 4.54875 16.2917 3.84041 16.875 3.25708C17.4583 2.67375 18.1667 2.38208 19 2.38208C19.8333 2.38208 20.5417 2.67375 21.125 3.25708C21.7083 3.84041 22 4.54875 22 5.38208C22 6.21541 21.7083 6.92375 21.125 7.50708C20.5417 8.09041 19.8333 8.38208 19 8.38208Z" fill="white"/>
</g>
</svg>
