<svg width="21" height="17" viewBox="0 0 21 17" fill="none" xmlns="http://www.w3.org/2000/svg">
<path d="M19.6629 9.93734C20.779 9.66343 20.779 9.19914 19.6629 8.91975L17.1977 8.30619C16.0828 8.03228 14.9393 6.88459 14.6612 5.76977L14.0477 3.30457C13.7738 2.18838 13.3081 2.18838 13.0301 3.30457L12.4165 5.76977C12.1426 6.88459 10.9936 8.02817 9.87873 8.30619L7.41353 8.91975C6.29871 9.19367 6.29871 9.65932 7.41353 9.93734L9.87873 10.5509C10.9936 10.8248 12.1371 11.9739 12.4165 13.0887L13.0301 15.5539C13.304 16.6687 13.7683 16.6687 14.0477 15.5539L14.6612 13.0887C14.9351 11.9739 16.0828 10.8303 17.1977 10.5509L19.6629 9.93734ZM8.72694 3.81404C9.17615 3.70174 9.17615 3.51548 8.72694 3.40318L7.73127 3.15529C7.49041 3.0808 7.27135 2.94869 7.09308 2.77042C6.9148 2.59214 6.7827 2.37308 6.70821 2.13223L6.46032 1.13793C6.34801 0.687342 6.16312 0.687342 6.04945 1.13793L5.80156 2.13223C5.72707 2.37308 5.59496 2.59214 5.41669 2.77042C5.23842 2.94869 5.01936 3.0808 4.7785 3.15529L3.78283 3.40318C3.33362 3.51548 3.33362 3.70174 3.78283 3.81404L4.7785 4.06056C5.01919 4.13537 5.23809 4.26758 5.41631 4.44581C5.59454 4.62404 5.72675 4.84293 5.80156 5.08362L6.04945 6.07929C6.16175 6.52851 6.34664 6.52851 6.46032 6.07929L6.70821 5.08362C6.78301 4.84293 6.91523 4.62404 7.09345 4.44581C7.27168 4.26758 7.49057 4.13537 7.73127 4.06056L8.72694 3.81404ZM5.78512 12.6313C6.23434 12.519 6.23434 12.3327 5.78512 12.2204L4.78946 11.9739C4.5483 11.8987 4.32911 11.7658 4.15085 11.5869C3.97259 11.4079 3.84063 11.1882 3.7664 10.9467L3.51851 9.95103C3.4062 9.50182 3.22131 9.50182 3.10764 9.95103L2.85564 10.9467C2.78083 11.1874 2.64862 11.4063 2.47039 11.5845C2.29217 11.7627 2.07327 11.895 1.83258 11.9698L0.836911 12.2163C0.387696 12.3286 0.387696 12.5148 0.836911 12.6272L1.83258 12.875C2.0739 12.9499 2.29326 13.0827 2.47157 13.2617C2.64988 13.4407 2.78173 13.6606 2.85564 13.9022L3.10353 14.8965C3.21583 15.3471 3.40072 15.3471 3.5144 14.8965L3.76229 13.9022C3.83678 13.6613 3.96888 13.4423 4.14716 13.264C4.32543 13.0857 4.54449 12.9536 4.78535 12.8791L5.78512 12.6313Z" fill="#232529"/>
</svg>
