<svg width="15" height="16" viewBox="0 0 15 16" fill="none" xmlns="http://www.w3.org/2000/svg">
<g clip-path="url(#clip0_3782_6989)">
<path d="M11.2013 10.5846C11.9936 9.55715 12.4224 8.29577 12.4205 6.99833C12.4205 5.82713 12.0732 4.68224 11.4225 3.70843C10.7718 2.73461 9.84698 1.97562 8.76494 1.52742C7.6829 1.07923 6.49225 0.961957 5.34356 1.19045C4.19487 1.41893 3.13973 1.98292 2.31157 2.81108C1.48341 3.63924 0.919423 4.69438 0.690934 5.84307C0.462445 6.99176 0.579714 8.18241 1.02791 9.26445C1.47611 10.3465 2.2351 11.2713 3.20892 11.922C4.18273 12.5727 5.32762 12.92 6.49882 12.92C7.79626 12.9219 9.05764 12.4931 10.0851 11.7008L13.0697 14.6854L14.1859 13.5692L11.2013 10.5846ZM2.16048 6.99833C2.16048 6.14029 2.41492 5.30152 2.89163 4.58808C3.36833 3.87465 4.04588 3.31859 4.83861 2.99023C5.63134 2.66187 6.50363 2.57596 7.34518 2.74336C8.18674 2.91075 8.95976 3.32394 9.56648 3.93066C10.1732 4.53739 10.5864 5.31041 10.7538 6.15196C10.9212 6.99352 10.8353 7.86581 10.5069 8.65854C10.1786 9.45126 9.6225 10.1288 8.90907 10.6055C8.19563 11.0822 7.35686 11.3367 6.49882 11.3367C5.34886 11.3346 4.24661 10.8768 3.43346 10.0637C2.62032 9.25054 2.16258 8.14828 2.16048 6.99833Z" fill="#BFBFBF"/>
</g>
<defs>
<clipPath id="clip0_3782_6989">
<rect width="14.3371" height="14.3371" fill="white" transform="translate(0.331543 0.831543)"/>
</clipPath>
</defs>
</svg>
