<svg width="20" height="20" viewBox="0 0 20 20" fill="none" xmlns="http://www.w3.org/2000/svg">
<g clip-path="url(#clip0_3782_6964)">
<mask id="mask0_3782_6964" style="mask-type:alpha" maskUnits="userSpaceOnUse" x="0" y="0" width="20" height="20">
<rect width="20" height="20" fill="#D9D9D9"/>
</mask>
<g mask="url(#mask0_3782_6964)">
<path d="M8.396 18L7.93766 15.625C7.61822 15.5 7.30919 15.3542 7.01058 15.1875C6.71197 15.0208 6.43072 14.8264 6.16683 14.6042L3.87516 15.375L2.271 12.6042L4.0835 11.0208C4.05572 10.8542 4.03488 10.6875 4.021 10.5208C4.00711 10.3542 4.00016 10.1806 4.00016 10C4.00016 9.81944 4.00711 9.64583 4.021 9.47917C4.03488 9.3125 4.05572 9.14583 4.0835 8.97917L2.271 7.39583L3.87516 4.625L6.16683 5.39583C6.43072 5.17361 6.71197 4.97917 7.01058 4.8125C7.30919 4.64583 7.61822 4.5 7.93766 4.375L8.396 2H11.6043L12.0627 4.375C12.3821 4.5 12.6911 4.64583 12.9897 4.8125C13.2884 4.97917 13.5696 5.17361 13.8335 5.39583L16.1252 4.625L17.7293 7.39583L15.9168 8.97917C15.9446 9.14583 15.9654 9.3125 15.9793 9.47917C15.9932 9.64583 16.0002 9.81944 16.0002 10C16.0002 10.1806 15.9932 10.3542 15.9793 10.5208C15.9654 10.6875 15.9446 10.8542 15.9168 11.0208L17.7293 12.6042L16.1252 15.375L13.8335 14.6042C13.5696 14.8264 13.2884 15.0208 12.9897 15.1875C12.6911 15.3542 12.3821 15.5 12.0627 15.625L11.6043 18H8.396ZM9.62516 16.5H10.3752L10.771 14.4375C11.2988 14.3403 11.7918 14.1597 12.2502 13.8958C12.7085 13.6319 13.1043 13.2986 13.4377 12.8958L15.4377 13.5625L15.8127 12.9375L14.2293 11.5417C14.3127 11.3056 14.3786 11.059 14.4272 10.8021C14.4759 10.5451 14.5002 10.2778 14.5002 10C14.5002 9.72222 14.4759 9.45486 14.4272 9.19792C14.3786 8.94097 14.3127 8.69444 14.2293 8.45833L15.8127 7.0625L15.4377 6.4375L13.4377 7.10417C13.1043 6.70139 12.7085 6.36806 12.2502 6.10417C11.7918 5.84028 11.2988 5.65972 10.771 5.5625L10.3752 3.5H9.62516L9.22933 5.5625C8.70155 5.65972 8.2085 5.84028 7.75016 6.10417C7.29183 6.36806 6.896 6.70139 6.56266 7.10417L4.56266 6.4375L4.18766 7.0625L5.771 8.45833C5.68766 8.69444 5.62169 8.94097 5.57308 9.19792C5.52447 9.45486 5.50016 9.72222 5.50016 10C5.50016 10.2778 5.52447 10.5451 5.57308 10.8021C5.62169 11.059 5.68766 11.3056 5.771 11.5417L4.18766 12.9375L4.56266 13.5625L6.56266 12.8958C6.896 13.2986 7.29183 13.6319 7.75016 13.8958C8.2085 14.1597 8.70155 14.3403 9.22933 14.4375L9.62516 16.5ZM10.0002 13C10.8335 13 11.5418 12.7083 12.1252 12.125C12.7085 11.5417 13.0002 10.8333 13.0002 10C13.0002 9.16667 12.7085 8.45833 12.1252 7.875C11.5418 7.29167 10.8335 7 10.0002 7C9.16683 7 8.4585 7.29167 7.87516 7.875C7.29183 8.45833 7.00016 9.16667 7.00016 10C7.00016 10.8333 7.29183 11.5417 7.87516 12.125C8.4585 12.7083 9.16683 13 10.0002 13Z" fill="#EEEFF1"/>
</g>
</g>
<defs>
<clipPath id="clip0_3782_6964">
<rect width="20" height="20" fill="white"/>
</clipPath>
</defs>
</svg>
