<svg width="22" height="16" viewBox="0 0 22 16" fill="none" xmlns="http://www.w3.org/2000/svg">
<path d="M3.85194 13.6297V7.67776L0.296387 5.03711V12.3722C0.296387 13.2106 0.729991 13.6297 1.5972 13.6297" fill="#4285F4"/>
<path d="M3.85181 7.70381L7.99995 10.9631L12.1481 7.70381V3.55566L7.99995 6.81492L3.85181 3.55566" fill="#EA4335"/>
<path d="M12.1482 13.6297V7.67776L15.7037 5.03711V12.3722C15.7037 13.2106 15.2701 13.6297 14.4029 13.6297" fill="#34A853"/>
<path d="M0.296387 5.11089L3.85194 7.70394V3.67031L2.55113 2.72364C1.3804 1.85929 0.296387 2.72364 0.296387 3.79379" fill="#C5221F"/>
<path d="M15.7037 5.11089L12.1482 7.70394V3.67031L13.449 2.72364C14.6197 1.85929 15.7037 2.72364 15.7037 3.79379" fill="#FBBC04"/>
</svg>
