<svg width="16" height="16" viewBox="0 0 16 16" fill="none" xmlns="http://www.w3.org/2000/svg">
<g clip-path="url(#clip0_604_986)">
<path fill-rule="evenodd" clip-rule="evenodd" d="M5.75129 0C4.88418 0.000652395 4.18241 0.716983 4.18305 1.59967C4.18241 2.48236 4.88482 3.19869 5.75193 3.19935H7.32082V1.60033C7.32146 0.717635 6.61905 0.00130479 5.75129 0C5.75193 0 5.75193 0 5.75129 0ZM5.75129 4.26667H1.56889C0.70177 4.26732 -0.000639132 4.98365 1.75146e-06 5.86634C-0.00128002 6.74903 0.701129 7.46536 1.56824 7.46667H5.75129C6.61841 7.46601 7.32082 6.74968 7.32018 5.86699C7.32082 4.98365 6.61841 4.26732 5.75129 4.26667Z" fill="#36C5F0"/>
<path fill-rule="evenodd" clip-rule="evenodd" d="M15.6864 5.86634C15.687 4.98365 14.9846 4.26732 14.1175 4.26667C13.2504 4.26732 12.548 4.98365 12.5486 5.86634V7.46667H14.1175C14.9846 7.46601 15.687 6.74968 15.6864 5.86634ZM11.5033 5.86634V1.59967C11.504 0.717635 10.8022 0.00130479 9.9351 0C9.06798 0.000652395 8.36557 0.716983 8.36621 1.59967V5.86634C8.36493 6.74903 9.06734 7.46536 9.93446 7.46667C10.8016 7.46601 11.504 6.74968 11.5033 5.86634Z" fill="#2EB67D"/>
<path fill-rule="evenodd" clip-rule="evenodd" d="M9.93436 16C10.8015 15.9994 11.5039 15.2831 11.5032 14.4004C11.5039 13.5177 10.8015 12.8013 9.93436 12.8007H8.36548V14.4004C8.36484 15.2824 9.06725 15.9987 9.93436 16ZM9.93436 11.7327H14.1174C14.9845 11.7321 15.6869 11.0157 15.6863 10.133C15.6876 9.25035 14.9852 8.53402 14.1181 8.53271H9.935C9.06789 8.53337 8.36548 9.2497 8.36612 10.1324C8.36548 11.0157 9.06725 11.7321 9.93436 11.7327Z" fill="#ECB22E"/>
<path fill-rule="evenodd" clip-rule="evenodd" d="M4.38212e-07 10.1329C-0.000640446 11.0156 0.701768 11.7319 1.56888 11.7326C2.436 11.7319 3.13841 11.0156 3.13777 10.1329V8.5332H1.56888C0.701768 8.53386 -0.000640446 9.25019 4.38212e-07 10.1329ZM4.18305 10.1329V14.3995C4.18177 15.2822 4.88418 15.9986 5.75129 15.9999C6.61841 15.9992 7.32082 15.2829 7.32018 14.4002V10.1342C7.32146 9.25149 6.61905 8.53516 5.75193 8.53386C4.88418 8.53386 4.18241 9.25019 4.18305 10.1329Z" fill="#E01E5A"/>
</g>
<defs>
<clipPath id="clip0_604_986">
<rect width="15.6863" height="16" fill="white"/>
</clipPath>
</defs>
</svg>
